<svg xmlns="http://www.w3.org/2000/svg" width="1432" height="760" style="cursor: move;"><g transform="translate(701.4631935199225,172.1366608756581) scale(0.5)"><rect class="rect" id="0_0" width="224" height="224" x="-356" y="264" style="fill: rgb(0, 0, 0); stroke: black; stroke-width: 0.62; opacity: 0.68;"></rect><rect class="rect" id="0_1" width="224" height="224" x="-352" y="268" style="fill: rgb(192, 192, 192); stroke: black; stroke-width: 0.62; opacity: 0.68;"></rect><rect class="rect" id="0_2" width="224" height="224" x="-348" y="272" style="fill: rgb(0, 0, 0); stroke: black; stroke-width: 0.62; opacity: 0.68;"></rect><rect class="rect" id="1_0" width="112" height="112" x="-84" y="262" style="fill: rgb(0, 0, 0); stroke: black; stroke-width: 0.62; opacity: 0.68;"></rect><rect class="rect" id="1_1" width="112" height="112" x="-80" y="266" style="fill: rgb(192, 192, 192); stroke: black; stroke-width: 0.62; opacity: 0.68;"></rect><rect class="rect" id="1_2" width="112" height="112" x="-76" y="270" style="fill: rgb(0, 0, 0); stroke: black; stroke-width: 0.62; opacity: 0.68;"></rect><rect class="rect" id="1_3" width="112" height="112" x="-72" y="274" style="fill: rgb(192, 192, 192); stroke: black; stroke-width: 0.62; opacity: 0.68;"></rect><rect class="rect" id="1_4" width="112" height="112" x="-68" y="278" style="fill: rgb(0, 0, 0); stroke: black; stroke-width: 0.62; opacity: 0.68;"></rect><rect class="rect" id="1_5" width="112" height="112" x="-64" y="282" style="fill: rgb(192, 192, 192); stroke: black; stroke-width: 0.62; opacity: 0.68;"></rect><rect class="rect" id="1_6" width="112" height="112" x="-60" y="286" style="fill: rgb(0, 0, 0); stroke: black; stroke-width: 0.62; opacity: 0.68;"></rect><rect class="rect" id="1_7" width="112" height="112" x="-56" y="290" style="fill: rgb(192, 192, 192); stroke: black; stroke-width: 0.62; opacity: 0.68;"></rect><rect class="rect" id="1_8" width="112" height="112" x="-52" y="294" style="fill: rgb(0, 0, 0); stroke: black; stroke-width: 0.62; opacity: 0.68;"></rect><rect class="rect" id="1_9" width="112" height="112" x="-48" y="298" style="fill: rgb(192, 192, 192); stroke: black; stroke-width: 0.62; opacity: 0.68;"></rect><rect class="rect" id="1_10" width="112" height="112" x="-44" y="302" style="fill: rgb(0, 0, 0); stroke: black; stroke-width: 0.62; opacity: 0.68;"></rect><rect class="rect" id="1_11" width="112" height="112" x="-40" y="306" style="fill: rgb(192, 192, 192); stroke: black; stroke-width: 0.62; opacity: 0.68;"></rect><rect class="rect" id="1_12" width="112" height="112" x="-36" y="310" style="fill: rgb(0, 0, 0); stroke: black; stroke-width: 0.62; opacity: 0.68;"></rect><rect class="rect" id="1_13" width="112" height="112" x="-32" y="314" style="fill: rgb(192, 192, 192); stroke: black; stroke-width: 0.62; opacity: 0.68;"></rect><rect class="rect" id="1_14" width="112" height="112" x="-28" y="318" style="fill: rgb(0, 0, 0); stroke: black; stroke-width: 0.62; opacity: 0.68;"></rect><rect class="rect" id="1_15" width="112" height="112" x="-24" y="322" style="fill: rgb(192, 192, 192); stroke: black; stroke-width: 0.62; opacity: 0.68;"></rect><rect class="rect" id="1_16" width="112" height="112" x="-20" y="326" style="fill: rgb(0, 0, 0); stroke: black; stroke-width: 0.62; opacity: 0.68;"></rect><rect class="rect" id="1_17" width="112" height="112" x="-16" y="330" style="fill: rgb(192, 192, 192); stroke: black; stroke-width: 0.62; opacity: 0.68;"></rect><rect class="rect" id="1_18" width="112" height="112" x="-12" y="334" style="fill: rgb(0, 0, 0); stroke: black; stroke-width: 0.62; opacity: 0.68;"></rect><rect class="rect" id="1_19" width="112" height="112" x="-8" y="338" style="fill: rgb(192, 192, 192); stroke: black; stroke-width: 0.62; opacity: 0.68;"></rect><rect class="rect" id="1_20" width="112" height="112" x="-4" y="342" style="fill: rgb(0, 0, 0); stroke: black; stroke-width: 0.62; opacity: 0.68;"></rect><rect class="rect" id="1_21" width="112" height="112" x="0" y="346" style="fill: rgb(192, 192, 192); stroke: black; stroke-width: 0.62; opacity: 0.68;"></rect><rect class="rect" id="1_22" width="112" height="112" x="4" y="350" style="fill: rgb(0, 0, 0); stroke: black; stroke-width: 0.62; opacity: 0.68;"></rect><rect class="rect" id="1_23" width="112" height="112" x="8" y="354" style="fill: rgb(192, 192, 192); stroke: black; stroke-width: 0.62; opacity: 0.68;"></rect><rect class="rect" id="1_24" width="112" height="112" x="12" y="358" style="fill: rgb(0, 0, 0); stroke: black; stroke-width: 0.62; opacity: 0.68;"></rect><rect class="rect" id="1_25" width="112" height="112" x="16" y="362" style="fill: rgb(192, 192, 192); stroke: black; stroke-width: 0.62; opacity: 0.68;"></rect><rect class="rect" id="1_26" width="112" height="112" x="20" y="366" style="fill: rgb(0, 0, 0); stroke: black; stroke-width: 0.62; opacity: 0.68;"></rect><rect class="rect" id="1_27" width="112" height="112" x="24" y="370" style="fill: rgb(192, 192, 192); stroke: black; stroke-width: 0.62; opacity: 0.68;"></rect><rect class="rect" id="1_28" width="112" height="112" x="28" y="374" style="fill: rgb(0, 0, 0); stroke: black; stroke-width: 0.62; opacity: 0.68;"></rect><rect class="rect" id="1_29" width="112" height="112" x="32" y="378" style="fill: rgb(192, 192, 192); stroke: black; stroke-width: 0.62; opacity: 0.68;"></rect><rect class="rect" id="1_30" width="112" height="112" x="36" y="382" style="fill: rgb(0, 0, 0); stroke: black; stroke-width: 0.62; opacity: 0.68;"></rect><rect class="rect" id="1_31" width="112" height="112" x="40" y="386" style="fill: rgb(192, 192, 192); stroke: black; stroke-width: 0.62; opacity: 0.68;"></rect><rect class="rect" id="2_0" width="56" height="56" x="83" y="226" style="fill: rgb(0, 0, 0); stroke: black; stroke-width: 0.62; opacity: 0.68;"></rect><rect class="rect" id="2_1" width="56" height="56" x="87" y="230" style="fill: rgb(192, 192, 192); stroke: black; stroke-width: 0.62; opacity: 0.68;"></rect><rect class="rect" id="2_2" width="56" height="56" x="91" y="234" style="fill: rgb(0, 0, 0); stroke: black; stroke-width: 0.62; opacity: 0.68;"></rect><rect class="rect" id="2_3" width="56" height="56" x="95" y="238" style="fill: rgb(192, 192, 192); stroke: black; stroke-width: 0.62; opacity: 0.68;"></rect><rect class="rect" id="2_4" width="56" height="56" x="99" y="242" style="fill: rgb(0, 0, 0); stroke: black; stroke-width: 0.62; opacity: 0.68;"></rect><rect class="rect" id="2_5" width="56" height="56" x="103" y="246" style="fill: rgb(192, 192, 192); stroke: black; stroke-width: 0.62; opacity: 0.68;"></rect><rect class="rect" id="2_6" width="56" height="56" x="107" y="250" style="fill: rgb(0, 0, 0); stroke: black; stroke-width: 0.62; opacity: 0.68;"></rect><rect class="rect" id="2_7" width="56" height="56" x="111" y="254" style="fill: rgb(192, 192, 192); stroke: black; stroke-width: 0.62; opacity: 0.68;"></rect><rect class="rect" id="2_8" width="56" height="56" x="115" y="258" style="fill: rgb(0, 0, 0); stroke: black; stroke-width: 0.62; opacity: 0.68;"></rect><rect class="rect" id="2_9" width="56" height="56" x="119" y="262" style="fill: rgb(192, 192, 192); stroke: black; stroke-width: 0.62; opacity: 0.68;"></rect><rect class="rect" id="2_10" width="56" height="56" x="123" y="266" style="fill: rgb(0, 0, 0); stroke: black; stroke-width: 0.62; opacity: 0.68;"></rect><rect class="rect" id="2_11" width="56" height="56" x="127" y="270" style="fill: rgb(192, 192, 192); stroke: black; stroke-width: 0.62; opacity: 0.68;"></rect><rect class="rect" id="2_12" width="56" height="56" x="131" y="274" style="fill: rgb(0, 0, 0); stroke: black; stroke-width: 0.62; opacity: 0.68;"></rect><rect class="rect" id="2_13" width="56" height="56" x="135" y="278" style="fill: rgb(192, 192, 192); stroke: black; stroke-width: 0.62; opacity: 0.68;"></rect><rect class="rect" id="2_14" width="56" height="56" x="139" y="282" style="fill: rgb(0, 0, 0); stroke: black; stroke-width: 0.62; opacity: 0.68;"></rect><rect class="rect" id="2_15" width="56" height="56" x="143" y="286" style="fill: rgb(192, 192, 192); stroke: black; stroke-width: 0.62; opacity: 0.68;"></rect><rect class="rect" id="2_16" width="56" height="56" x="147" y="290" style="fill: rgb(0, 0, 0); stroke: black; stroke-width: 0.62; opacity: 0.68;"></rect><rect class="rect" id="2_17" width="56" height="56" x="151" y="294" style="fill: rgb(192, 192, 192); stroke: black; stroke-width: 0.62; opacity: 0.68;"></rect><rect class="rect" id="2_18" width="56" height="56" x="155" y="298" style="fill: rgb(0, 0, 0); stroke: black; stroke-width: 0.62; opacity: 0.68;"></rect><rect class="rect" id="2_19" width="56" height="56" x="159" y="302" style="fill: rgb(192, 192, 192); stroke: black; stroke-width: 0.62; opacity: 0.68;"></rect><rect class="rect" id="2_20" width="56" height="56" x="163" y="306" style="fill: rgb(0, 0, 0); stroke: black; stroke-width: 0.62; opacity: 0.68;"></rect><rect class="rect" id="2_21" width="56" height="56" x="167" y="310" style="fill: rgb(192, 192, 192); stroke: black; stroke-width: 0.62; opacity: 0.68;"></rect><rect class="rect" id="2_22" width="56" height="56" x="171" y="314" style="fill: rgb(0, 0, 0); stroke: black; stroke-width: 0.62; opacity: 0.68;"></rect><rect class="rect" id="2_23" width="56" height="56" x="175" y="318" style="fill: rgb(192, 192, 192); stroke: black; stroke-width: 0.62; opacity: 0.68;"></rect><rect class="rect" id="2_24" width="56" height="56" x="179" y="322" style="fill: rgb(0, 0, 0); stroke: black; stroke-width: 0.62; opacity: 0.68;"></rect><rect class="rect" id="2_25" width="56" height="56" x="183" y="326" style="fill: rgb(192, 192, 192); stroke: black; stroke-width: 0.62; opacity: 0.68;"></rect><rect class="rect" id="2_26" width="56" height="56" x="187" y="330" style="fill: rgb(0, 0, 0); stroke: black; stroke-width: 0.62; opacity: 0.68;"></rect><rect class="rect" id="2_27" width="56" height="56" x="191" y="334" style="fill: rgb(192, 192, 192); stroke: black; stroke-width: 0.62; opacity: 0.68;"></rect><rect class="rect" id="2_28" width="56" height="56" x="195" y="338" style="fill: rgb(0, 0, 0); stroke: black; stroke-width: 0.62; opacity: 0.68;"></rect><rect class="rect" id="2_29" width="56" height="56" x="199" y="342" style="fill: rgb(192, 192, 192); stroke: black; stroke-width: 0.62; opacity: 0.68;"></rect><rect class="rect" id="2_30" width="56" height="56" x="203" y="346" style="fill: rgb(0, 0, 0); stroke: black; stroke-width: 0.62; opacity: 0.68;"></rect><rect class="rect" id="2_31" width="56" height="56" x="207" y="350" style="fill: rgb(192, 192, 192); stroke: black; stroke-width: 0.62; opacity: 0.68;"></rect><rect class="rect" id="2_32" width="56" height="56" x="211" y="354" style="fill: rgb(0, 0, 0); stroke: black; stroke-width: 0.62; opacity: 0.68;"></rect><rect class="rect" id="2_33" width="56" height="56" x="215" y="358" style="fill: rgb(192, 192, 192); stroke: black; stroke-width: 0.62; opacity: 0.68;"></rect><rect class="rect" id="2_34" width="56" height="56" x="219" y="362" style="fill: rgb(0, 0, 0); stroke: black; stroke-width: 0.62; opacity: 0.68;"></rect><rect class="rect" id="2_35" width="56" height="56" x="223" y="366" style="fill: rgb(192, 192, 192); stroke: black; stroke-width: 0.62; opacity: 0.68;"></rect><rect class="rect" id="2_36" width="56" height="56" x="227" y="370" style="fill: rgb(0, 0, 0); stroke: black; stroke-width: 0.62; opacity: 0.68;"></rect><rect class="rect" id="2_37" width="56" height="56" x="231" y="374" style="fill: rgb(192, 192, 192); stroke: black; stroke-width: 0.62; opacity: 0.68;"></rect><rect class="rect" id="2_38" width="56" height="56" x="235" y="378" style="fill: rgb(0, 0, 0); stroke: black; stroke-width: 0.62; opacity: 0.68;"></rect><rect class="rect" id="2_39" width="56" height="56" x="239" y="382" style="fill: rgb(192, 192, 192); stroke: black; stroke-width: 0.62; opacity: 0.68;"></rect><rect class="rect" id="2_40" width="56" height="56" x="243" y="386" style="fill: rgb(0, 0, 0); stroke: black; stroke-width: 0.62; opacity: 0.68;"></rect><rect class="rect" id="2_41" width="56" height="56" x="247" y="390" style="fill: rgb(192, 192, 192); stroke: black; stroke-width: 0.62; opacity: 0.68;"></rect><rect class="rect" id="2_42" width="56" height="56" x="251" y="394" style="fill: rgb(0, 0, 0); stroke: black; stroke-width: 0.62; opacity: 0.68;"></rect><rect class="rect" id="2_43" width="56" height="56" x="255" y="398" style="fill: rgb(192, 192, 192); stroke: black; stroke-width: 0.62; opacity: 0.68;"></rect><rect class="rect" id="2_44" width="56" height="56" x="259" y="402" style="fill: rgb(0, 0, 0); stroke: black; stroke-width: 0.62; opacity: 0.68;"></rect><rect class="rect" id="2_45" width="56" height="56" x="263" y="406" style="fill: rgb(192, 192, 192); stroke: black; stroke-width: 0.62; opacity: 0.68;"></rect><rect class="rect" id="2_46" width="56" height="56" x="267" y="410" style="fill: rgb(0, 0, 0); stroke: black; stroke-width: 0.62; opacity: 0.68;"></rect><rect class="rect" id="2_47" width="56" height="56" x="271" y="414" style="fill: rgb(192, 192, 192); stroke: black; stroke-width: 0.62; opacity: 0.68;"></rect><rect class="rect" id="2_48" width="56" height="56" x="275" y="418" style="fill: rgb(0, 0, 0); stroke: black; stroke-width: 0.62; opacity: 0.68;"></rect><rect class="rect" id="2_49" width="56" height="56" x="279" y="422" style="fill: rgb(192, 192, 192); stroke: black; stroke-width: 0.62; opacity: 0.68;"></rect><rect class="rect" id="2_50" width="56" height="56" x="283" y="426" style="fill: rgb(0, 0, 0); stroke: black; stroke-width: 0.62; opacity: 0.68;"></rect><rect class="rect" id="2_51" width="56" height="56" x="287" y="430" style="fill: rgb(192, 192, 192); stroke: black; stroke-width: 0.62; opacity: 0.68;"></rect><rect class="rect" id="2_52" width="56" height="56" x="291" y="434" style="fill: rgb(0, 0, 0); stroke: black; stroke-width: 0.62; opacity: 0.68;"></rect><rect class="rect" id="2_53" width="56" height="56" x="295" y="438" style="fill: rgb(192, 192, 192); stroke: black; stroke-width: 0.62; opacity: 0.68;"></rect><rect class="rect" id="2_54" width="56" height="56" x="299" y="442" style="fill: rgb(0, 0, 0); stroke: black; stroke-width: 0.62; opacity: 0.68;"></rect><rect class="rect" id="2_55" width="56" height="56" x="303" y="446" style="fill: rgb(192, 192, 192); stroke: black; stroke-width: 0.62; opacity: 0.68;"></rect><rect class="rect" id="2_56" width="56" height="56" x="307" y="450" style="fill: rgb(0, 0, 0); stroke: black; stroke-width: 0.62; opacity: 0.68;"></rect><rect class="rect" id="2_57" width="56" height="56" x="311" y="454" style="fill: rgb(192, 192, 192); stroke: black; stroke-width: 0.62; opacity: 0.68;"></rect><rect class="rect" id="2_58" width="56" height="56" x="315" y="458" style="fill: rgb(0, 0, 0); stroke: black; stroke-width: 0.62; opacity: 0.68;"></rect><rect class="rect" id="2_59" width="56" height="56" x="319" y="462" style="fill: rgb(192, 192, 192); stroke: black; stroke-width: 0.62; opacity: 0.68;"></rect><rect class="rect" id="2_60" width="56" height="56" x="323" y="466" style="fill: rgb(0, 0, 0); stroke: black; stroke-width: 0.62; opacity: 0.68;"></rect><rect class="rect" id="2_61" width="56" height="56" x="327" y="470" style="fill: rgb(192, 192, 192); stroke: black; stroke-width: 0.62; opacity: 0.68;"></rect><rect class="rect" id="2_62" width="56" height="56" x="331" y="474" style="fill: rgb(0, 0, 0); stroke: black; stroke-width: 0.62; opacity: 0.68;"></rect><rect class="rect" id="2_63" width="56" height="56" x="335" y="478" style="fill: rgb(192, 192, 192); stroke: black; stroke-width: 0.62; opacity: 0.68;"></rect><rect class="rect" id="3_0" width="28" height="28" x="371" y="112" style="fill: rgb(0, 0, 0); stroke: black; stroke-width: 0.62; opacity: 0.68;"></rect><rect class="rect" id="3_1" width="28" height="28" x="375" y="116" style="fill: rgb(192, 192, 192); stroke: black; stroke-width: 0.62; opacity: 0.68;"></rect><rect class="rect" id="3_2" width="28" height="28" x="379" y="120" style="fill: rgb(0, 0, 0); stroke: black; stroke-width: 0.62; opacity: 0.68;"></rect><rect class="rect" id="3_3" width="28" height="28" x="383" y="124" style="fill: rgb(192, 192, 192); stroke: black; stroke-width: 0.62; opacity: 0.68;"></rect><rect class="rect" id="3_4" width="28" height="28" x="387" y="128" style="fill: rgb(0, 0, 0); stroke: black; stroke-width: 0.62; opacity: 0.68;"></rect><rect class="rect" id="3_5" width="28" height="28" x="391" y="132" style="fill: rgb(192, 192, 192); stroke: black; stroke-width: 0.62; opacity: 0.68;"></rect><rect class="rect" id="3_6" width="28" height="28" x="395" y="136" style="fill: rgb(0, 0, 0); stroke: black; stroke-width: 0.62; opacity: 0.68;"></rect><rect class="rect" id="3_7" width="28" height="28" x="399" y="140" style="fill: rgb(192, 192, 192); stroke: black; stroke-width: 0.62; opacity: 0.68;"></rect><rect class="rect" id="3_8" width="28" height="28" x="403" y="144" style="fill: rgb(0, 0, 0); stroke: black; stroke-width: 0.62; opacity: 0.68;"></rect><rect class="rect" id="3_9" width="28" height="28" x="407" y="148" style="fill: rgb(192, 192, 192); stroke: black; stroke-width: 0.62; opacity: 0.68;"></rect><rect class="rect" id="3_10" width="28" height="28" x="411" y="152" style="fill: rgb(0, 0, 0); stroke: black; stroke-width: 0.62; opacity: 0.68;"></rect><rect class="rect" id="3_11" width="28" height="28" x="415" y="156" style="fill: rgb(192, 192, 192); stroke: black; stroke-width: 0.62; opacity: 0.68;"></rect><rect class="rect" id="3_12" width="28" height="28" x="419" y="160" style="fill: rgb(0, 0, 0); stroke: black; stroke-width: 0.62; opacity: 0.68;"></rect><rect class="rect" id="3_13" width="28" height="28" x="423" y="164" style="fill: rgb(192, 192, 192); stroke: black; stroke-width: 0.62; opacity: 0.68;"></rect><rect class="rect" id="3_14" width="28" height="28" x="427" y="168" style="fill: rgb(0, 0, 0); stroke: black; stroke-width: 0.62; opacity: 0.68;"></rect><rect class="rect" id="3_15" width="28" height="28" x="431" y="172" style="fill: rgb(192, 192, 192); stroke: black; stroke-width: 0.62; opacity: 0.68;"></rect><rect class="rect" id="3_16" width="28" height="28" x="435" y="176" style="fill: rgb(0, 0, 0); stroke: black; stroke-width: 0.62; opacity: 0.68;"></rect><rect class="rect" id="3_17" width="28" height="28" x="439" y="180" style="fill: rgb(192, 192, 192); stroke: black; stroke-width: 0.62; opacity: 0.68;"></rect><rect class="rect" id="3_18" width="28" height="28" x="443" y="184" style="fill: rgb(0, 0, 0); stroke: black; stroke-width: 0.62; opacity: 0.68;"></rect><rect class="rect" id="3_19" width="28" height="28" x="447" y="188" style="fill: rgb(192, 192, 192); stroke: black; stroke-width: 0.62; opacity: 0.68;"></rect><rect class="rect" id="3_20" width="28" height="28" x="451" y="192" style="fill: rgb(0, 0, 0); stroke: black; stroke-width: 0.62; opacity: 0.68;"></rect><rect class="rect" id="3_21" width="28" height="28" x="455" y="196" style="fill: rgb(192, 192, 192); stroke: black; stroke-width: 0.62; opacity: 0.68;"></rect><rect class="rect" id="3_22" width="28" height="28" x="459" y="200" style="fill: rgb(0, 0, 0); stroke: black; stroke-width: 0.62; opacity: 0.68;"></rect><rect class="rect" id="3_23" width="28" height="28" x="463" y="204" style="fill: rgb(192, 192, 192); stroke: black; stroke-width: 0.62; opacity: 0.68;"></rect><rect class="rect" id="3_24" width="28" height="28" x="467" y="208" style="fill: rgb(0, 0, 0); stroke: black; stroke-width: 0.62; opacity: 0.68;"></rect><rect class="rect" id="3_25" width="28" height="28" x="471" y="212" style="fill: rgb(192, 192, 192); stroke: black; stroke-width: 0.62; opacity: 0.68;"></rect><rect class="rect" id="3_26" width="28" height="28" x="475" y="216" style="fill: rgb(0, 0, 0); stroke: black; stroke-width: 0.62; opacity: 0.68;"></rect><rect class="rect" id="3_27" width="28" height="28" x="479" y="220" style="fill: rgb(192, 192, 192); stroke: black; stroke-width: 0.62; opacity: 0.68;"></rect><rect class="rect" id="3_28" width="28" height="28" x="483" y="224" style="fill: rgb(0, 0, 0); stroke: black; stroke-width: 0.62; opacity: 0.68;"></rect><rect class="rect" id="3_29" width="28" height="28" x="487" y="228" style="fill: rgb(192, 192, 192); stroke: black; stroke-width: 0.62; opacity: 0.68;"></rect><rect class="rect" id="3_30" width="28" height="28" x="491" y="232" style="fill: rgb(0, 0, 0); stroke: black; stroke-width: 0.62; opacity: 0.68;"></rect><rect class="rect" id="3_31" width="28" height="28" x="495" y="236" style="fill: rgb(192, 192, 192); stroke: black; stroke-width: 0.62; opacity: 0.68;"></rect><rect class="rect" id="3_32" width="28" height="28" x="499" y="240" style="fill: rgb(0, 0, 0); stroke: black; stroke-width: 0.62; opacity: 0.68;"></rect><rect class="rect" id="3_33" width="28" height="28" x="503" y="244" style="fill: rgb(192, 192, 192); stroke: black; stroke-width: 0.62; opacity: 0.68;"></rect><rect class="rect" id="3_34" width="28" height="28" x="507" y="248" style="fill: rgb(0, 0, 0); stroke: black; stroke-width: 0.62; opacity: 0.68;"></rect><rect class="rect" id="3_35" width="28" height="28" x="511" y="252" style="fill: rgb(192, 192, 192); stroke: black; stroke-width: 0.62; opacity: 0.68;"></rect><rect class="rect" id="3_36" width="28" height="28" x="515" y="256" style="fill: rgb(0, 0, 0); stroke: black; stroke-width: 0.62; opacity: 0.68;"></rect><rect class="rect" id="3_37" width="28" height="28" x="519" y="260" style="fill: rgb(192, 192, 192); stroke: black; stroke-width: 0.62; opacity: 0.68;"></rect><rect class="rect" id="3_38" width="28" height="28" x="523" y="264" style="fill: rgb(0, 0, 0); stroke: black; stroke-width: 0.62; opacity: 0.68;"></rect><rect class="rect" id="3_39" width="28" height="28" x="527" y="268" style="fill: rgb(192, 192, 192); stroke: black; stroke-width: 0.62; opacity: 0.68;"></rect><rect class="rect" id="3_40" width="28" height="28" x="531" y="272" style="fill: rgb(0, 0, 0); stroke: black; stroke-width: 0.62; opacity: 0.68;"></rect><rect class="rect" id="3_41" width="28" height="28" x="535" y="276" style="fill: rgb(192, 192, 192); stroke: black; stroke-width: 0.62; opacity: 0.68;"></rect><rect class="rect" id="3_42" width="28" height="28" x="539" y="280" style="fill: rgb(0, 0, 0); stroke: black; stroke-width: 0.62; opacity: 0.68;"></rect><rect class="rect" id="3_43" width="28" height="28" x="543" y="284" style="fill: rgb(192, 192, 192); stroke: black; stroke-width: 0.62; opacity: 0.68;"></rect><rect class="rect" id="3_44" width="28" height="28" x="547" y="288" style="fill: rgb(0, 0, 0); stroke: black; stroke-width: 0.62; opacity: 0.68;"></rect><rect class="rect" id="3_45" width="28" height="28" x="551" y="292" style="fill: rgb(192, 192, 192); stroke: black; stroke-width: 0.62; opacity: 0.68;"></rect><rect class="rect" id="3_46" width="28" height="28" x="555" y="296" style="fill: rgb(0, 0, 0); stroke: black; stroke-width: 0.62; opacity: 0.68;"></rect><rect class="rect" id="3_47" width="28" height="28" x="559" y="300" style="fill: rgb(192, 192, 192); stroke: black; stroke-width: 0.62; opacity: 0.68;"></rect><rect class="rect" id="3_48" width="28" height="28" x="563" y="304" style="fill: rgb(0, 0, 0); stroke: black; stroke-width: 0.62; opacity: 0.68;"></rect><rect class="rect" id="3_49" width="28" height="28" x="567" y="308" style="fill: rgb(192, 192, 192); stroke: black; stroke-width: 0.62; opacity: 0.68;"></rect><rect class="rect" id="3_50" width="28" height="28" x="571" y="312" style="fill: rgb(0, 0, 0); stroke: black; stroke-width: 0.62; opacity: 0.68;"></rect><rect class="rect" id="3_51" width="28" height="28" x="575" y="316" style="fill: rgb(192, 192, 192); stroke: black; stroke-width: 0.62; opacity: 0.68;"></rect><rect class="rect" id="3_52" width="28" height="28" x="579" y="320" style="fill: rgb(0, 0, 0); stroke: black; stroke-width: 0.62; opacity: 0.68;"></rect><rect class="rect" id="3_53" width="28" height="28" x="583" y="324" style="fill: rgb(192, 192, 192); stroke: black; stroke-width: 0.62; opacity: 0.68;"></rect><rect class="rect" id="3_54" width="28" height="28" x="587" y="328" style="fill: rgb(0, 0, 0); stroke: black; stroke-width: 0.62; opacity: 0.68;"></rect><rect class="rect" id="3_55" width="28" height="28" x="591" y="332" style="fill: rgb(192, 192, 192); stroke: black; stroke-width: 0.62; opacity: 0.68;"></rect><rect class="rect" id="3_56" width="28" height="28" x="595" y="336" style="fill: rgb(0, 0, 0); stroke: black; stroke-width: 0.62; opacity: 0.68;"></rect><rect class="rect" id="3_57" width="28" height="28" x="599" y="340" style="fill: rgb(192, 192, 192); stroke: black; stroke-width: 0.62; opacity: 0.68;"></rect><rect class="rect" id="3_58" width="28" height="28" x="603" y="344" style="fill: rgb(0, 0, 0); stroke: black; stroke-width: 0.62; opacity: 0.68;"></rect><rect class="rect" id="3_59" width="28" height="28" x="607" y="348" style="fill: rgb(192, 192, 192); stroke: black; stroke-width: 0.62; opacity: 0.68;"></rect><rect class="rect" id="3_60" width="28" height="28" x="611" y="352" style="fill: rgb(0, 0, 0); stroke: black; stroke-width: 0.62; opacity: 0.68;"></rect><rect class="rect" id="3_61" width="28" height="28" x="615" y="356" style="fill: rgb(192, 192, 192); stroke: black; stroke-width: 0.62; opacity: 0.68;"></rect><rect class="rect" id="3_62" width="28" height="28" x="619" y="360" style="fill: rgb(0, 0, 0); stroke: black; stroke-width: 0.62; opacity: 0.68;"></rect><rect class="rect" id="3_63" width="28" height="28" x="623" y="364" style="fill: rgb(192, 192, 192); stroke: black; stroke-width: 0.62; opacity: 0.68;"></rect><rect class="rect" id="3_64" width="28" height="28" x="627" y="368" style="fill: rgb(0, 0, 0); stroke: black; stroke-width: 0.62; opacity: 0.68;"></rect><rect class="rect" id="3_65" width="28" height="28" x="631" y="372" style="fill: rgb(192, 192, 192); stroke: black; stroke-width: 0.62; opacity: 0.68;"></rect><rect class="rect" id="3_66" width="28" height="28" x="635" y="376" style="fill: rgb(0, 0, 0); stroke: black; stroke-width: 0.62; opacity: 0.68;"></rect><rect class="rect" id="3_67" width="28" height="28" x="639" y="380" style="fill: rgb(192, 192, 192); stroke: black; stroke-width: 0.62; opacity: 0.68;"></rect><rect class="rect" id="3_68" width="28" height="28" x="643" y="384" style="fill: rgb(0, 0, 0); stroke: black; stroke-width: 0.62; opacity: 0.68;"></rect><rect class="rect" id="3_69" width="28" height="28" x="647" y="388" style="fill: rgb(192, 192, 192); stroke: black; stroke-width: 0.62; opacity: 0.68;"></rect><rect class="rect" id="3_70" width="28" height="28" x="651" y="392" style="fill: rgb(0, 0, 0); stroke: black; stroke-width: 0.62; opacity: 0.68;"></rect><rect class="rect" id="3_71" width="28" height="28" x="655" y="396" style="fill: rgb(192, 192, 192); stroke: black; stroke-width: 0.62; opacity: 0.68;"></rect><rect class="rect" id="3_72" width="28" height="28" x="659" y="400" style="fill: rgb(0, 0, 0); stroke: black; stroke-width: 0.62; opacity: 0.68;"></rect><rect class="rect" id="3_73" width="28" height="28" x="663" y="404" style="fill: rgb(192, 192, 192); stroke: black; stroke-width: 0.62; opacity: 0.68;"></rect><rect class="rect" id="3_74" width="28" height="28" x="667" y="408" style="fill: rgb(0, 0, 0); stroke: black; stroke-width: 0.62; opacity: 0.68;"></rect><rect class="rect" id="3_75" width="28" height="28" x="671" y="412" style="fill: rgb(192, 192, 192); stroke: black; stroke-width: 0.62; opacity: 0.68;"></rect><rect class="rect" id="3_76" width="28" height="28" x="675" y="416" style="fill: rgb(0, 0, 0); stroke: black; stroke-width: 0.62; opacity: 0.68;"></rect><rect class="rect" id="3_77" width="28" height="28" x="679" y="420" style="fill: rgb(192, 192, 192); stroke: black; stroke-width: 0.62; opacity: 0.68;"></rect><rect class="rect" id="3_78" width="28" height="28" x="683" y="424" style="fill: rgb(0, 0, 0); stroke: black; stroke-width: 0.62; opacity: 0.68;"></rect><rect class="rect" id="3_79" width="28" height="28" x="687" y="428" style="fill: rgb(192, 192, 192); stroke: black; stroke-width: 0.62; opacity: 0.68;"></rect><rect class="rect" id="3_80" width="28" height="28" x="691" y="432" style="fill: rgb(0, 0, 0); stroke: black; stroke-width: 0.62; opacity: 0.68;"></rect><rect class="rect" id="3_81" width="28" height="28" x="695" y="436" style="fill: rgb(192, 192, 192); stroke: black; stroke-width: 0.62; opacity: 0.68;"></rect><rect class="rect" id="3_82" width="28" height="28" x="699" y="440" style="fill: rgb(0, 0, 0); stroke: black; stroke-width: 0.62; opacity: 0.68;"></rect><rect class="rect" id="3_83" width="28" height="28" x="703" y="444" style="fill: rgb(192, 192, 192); stroke: black; stroke-width: 0.62; opacity: 0.68;"></rect><rect class="rect" id="3_84" width="28" height="28" x="707" y="448" style="fill: rgb(0, 0, 0); stroke: black; stroke-width: 0.62; opacity: 0.68;"></rect><rect class="rect" id="3_85" width="28" height="28" x="711" y="452" style="fill: rgb(192, 192, 192); stroke: black; stroke-width: 0.62; opacity: 0.68;"></rect><rect class="rect" id="3_86" width="28" height="28" x="715" y="456" style="fill: rgb(0, 0, 0); stroke: black; stroke-width: 0.62; opacity: 0.68;"></rect><rect class="rect" id="3_87" width="28" height="28" x="719" y="460" style="fill: rgb(192, 192, 192); stroke: black; stroke-width: 0.62; opacity: 0.68;"></rect><rect class="rect" id="3_88" width="28" height="28" x="723" y="464" style="fill: rgb(0, 0, 0); stroke: black; stroke-width: 0.62; opacity: 0.68;"></rect><rect class="rect" id="3_89" width="28" height="28" x="727" y="468" style="fill: rgb(192, 192, 192); stroke: black; stroke-width: 0.62; opacity: 0.68;"></rect><rect class="rect" id="3_90" width="28" height="28" x="731" y="472" style="fill: rgb(0, 0, 0); stroke: black; stroke-width: 0.62; opacity: 0.68;"></rect><rect class="rect" id="3_91" width="28" height="28" x="735" y="476" style="fill: rgb(192, 192, 192); stroke: black; stroke-width: 0.62; opacity: 0.68;"></rect><rect class="rect" id="3_92" width="28" height="28" x="739" y="480" style="fill: rgb(0, 0, 0); stroke: black; stroke-width: 0.62; opacity: 0.68;"></rect><rect class="rect" id="3_93" width="28" height="28" x="743" y="484" style="fill: rgb(192, 192, 192); stroke: black; stroke-width: 0.62; opacity: 0.68;"></rect><rect class="rect" id="3_94" width="28" height="28" x="747" y="488" style="fill: rgb(0, 0, 0); stroke: black; stroke-width: 0.62; opacity: 0.68;"></rect><rect class="rect" id="3_95" width="28" height="28" x="751" y="492" style="fill: rgb(192, 192, 192); stroke: black; stroke-width: 0.62; opacity: 0.68;"></rect><rect class="rect" id="3_96" width="28" height="28" x="755" y="496" style="fill: rgb(0, 0, 0); stroke: black; stroke-width: 0.62; opacity: 0.68;"></rect><rect class="rect" id="3_97" width="28" height="28" x="759" y="500" style="fill: rgb(192, 192, 192); stroke: black; stroke-width: 0.62; opacity: 0.68;"></rect><rect class="rect" id="3_98" width="28" height="28" x="763" y="504" style="fill: rgb(0, 0, 0); stroke: black; stroke-width: 0.62; opacity: 0.68;"></rect><rect class="rect" id="3_99" width="28" height="28" x="767" y="508" style="fill: rgb(192, 192, 192); stroke: black; stroke-width: 0.62; opacity: 0.68;"></rect><rect class="rect" id="3_100" width="28" height="28" x="771" y="512" style="fill: rgb(0, 0, 0); stroke: black; stroke-width: 0.62; opacity: 0.68;"></rect><rect class="rect" id="3_101" width="28" height="28" x="775" y="516" style="fill: rgb(192, 192, 192); stroke: black; stroke-width: 0.62; opacity: 0.68;"></rect><rect class="rect" id="3_102" width="28" height="28" x="779" y="520" style="fill: rgb(0, 0, 0); stroke: black; stroke-width: 0.62; opacity: 0.68;"></rect><rect class="rect" id="3_103" width="28" height="28" x="783" y="524" style="fill: rgb(192, 192, 192); stroke: black; stroke-width: 0.62; opacity: 0.68;"></rect><rect class="rect" id="3_104" width="28" height="28" x="787" y="528" style="fill: rgb(0, 0, 0); stroke: black; stroke-width: 0.62; opacity: 0.68;"></rect><rect class="rect" id="3_105" width="28" height="28" x="791" y="532" style="fill: rgb(192, 192, 192); stroke: black; stroke-width: 0.62; opacity: 0.68;"></rect><rect class="rect" id="3_106" width="28" height="28" x="795" y="536" style="fill: rgb(0, 0, 0); stroke: black; stroke-width: 0.62; opacity: 0.68;"></rect><rect class="rect" id="3_107" width="28" height="28" x="799" y="540" style="fill: rgb(192, 192, 192); stroke: black; stroke-width: 0.62; opacity: 0.68;"></rect><rect class="rect" id="3_108" width="28" height="28" x="803" y="544" style="fill: rgb(0, 0, 0); stroke: black; stroke-width: 0.62; opacity: 0.68;"></rect><rect class="rect" id="3_109" width="28" height="28" x="807" y="548" style="fill: rgb(192, 192, 192); stroke: black; stroke-width: 0.62; opacity: 0.68;"></rect><rect class="rect" id="3_110" width="28" height="28" x="811" y="552" style="fill: rgb(0, 0, 0); stroke: black; stroke-width: 0.62; opacity: 0.68;"></rect><rect class="rect" id="3_111" width="28" height="28" x="815" y="556" style="fill: rgb(192, 192, 192); stroke: black; stroke-width: 0.62; opacity: 0.68;"></rect><rect class="rect" id="3_112" width="28" height="28" x="819" y="560" style="fill: rgb(0, 0, 0); stroke: black; stroke-width: 0.62; opacity: 0.68;"></rect><rect class="rect" id="3_113" width="28" height="28" x="823" y="564" style="fill: rgb(192, 192, 192); stroke: black; stroke-width: 0.62; opacity: 0.68;"></rect><rect class="rect" id="3_114" width="28" height="28" x="827" y="568" style="fill: rgb(0, 0, 0); stroke: black; stroke-width: 0.62; opacity: 0.68;"></rect><rect class="rect" id="3_115" width="28" height="28" x="831" y="572" style="fill: rgb(192, 192, 192); stroke: black; stroke-width: 0.62; opacity: 0.68;"></rect><rect class="rect" id="3_116" width="28" height="28" x="835" y="576" style="fill: rgb(0, 0, 0); stroke: black; stroke-width: 0.62; opacity: 0.68;"></rect><rect class="rect" id="3_117" width="28" height="28" x="839" y="580" style="fill: rgb(192, 192, 192); stroke: black; stroke-width: 0.62; opacity: 0.68;"></rect><rect class="rect" id="3_118" width="28" height="28" x="843" y="584" style="fill: rgb(0, 0, 0); stroke: black; stroke-width: 0.62; opacity: 0.68;"></rect><rect class="rect" id="3_119" width="28" height="28" x="847" y="588" style="fill: rgb(192, 192, 192); stroke: black; stroke-width: 0.62; opacity: 0.68;"></rect><rect class="rect" id="3_120" width="28" height="28" x="851" y="592" style="fill: rgb(0, 0, 0); stroke: black; stroke-width: 0.62; opacity: 0.68;"></rect><rect class="rect" id="3_121" width="28" height="28" x="855" y="596" style="fill: rgb(192, 192, 192); stroke: black; stroke-width: 0.62; opacity: 0.68;"></rect><rect class="rect" id="3_122" width="28" height="28" x="859" y="600" style="fill: rgb(0, 0, 0); stroke: black; stroke-width: 0.62; opacity: 0.68;"></rect><rect class="rect" id="3_123" width="28" height="28" x="863" y="604" style="fill: rgb(192, 192, 192); stroke: black; stroke-width: 0.62; opacity: 0.68;"></rect><rect class="rect" id="3_124" width="28" height="28" x="867" y="608" style="fill: rgb(0, 0, 0); stroke: black; stroke-width: 0.62; opacity: 0.68;"></rect><rect class="rect" id="3_125" width="28" height="28" x="871" y="612" style="fill: rgb(192, 192, 192); stroke: black; stroke-width: 0.62; opacity: 0.68;"></rect><rect class="rect" id="3_126" width="28" height="28" x="875" y="616" style="fill: rgb(0, 0, 0); stroke: black; stroke-width: 0.62; opacity: 0.68;"></rect><rect class="rect" id="3_127" width="28" height="28" x="879" y="620" style="fill: rgb(192, 192, 192); stroke: black; stroke-width: 0.62; opacity: 0.68;"></rect><rect class="conv" id="conv_0" width="3" height="3" x="-204.08057513587568" y="373.2171544424716" style="fill-opacity: 0; stroke: black; stroke-width: 0.62; stroke-opacity: 0.68;"></rect><rect class="conv" id="conv_1" width="3" height="3" x="64.9403490824493" y="399.72806719387523" style="fill-opacity: 0; stroke: black; stroke-width: 0.62; stroke-opacity: 0.68;"></rect><rect class="conv" id="conv_2" width="3" height="3" x="353.68707713564083" y="494.2012408584412" style="fill-opacity: 0; stroke: black; stroke-width: 0.62; stroke-opacity: 0.68;"></rect><line class="link" id="conv_0" x1="-201.08057513587568" y1="376.2171544424716" x2="112.93654110761054" y2="437.2955714821575" style="stroke: black; stroke-width: 0.31; stroke-opacity: 0.68;"></line><line class="link" id="conv_0" x1="-201.08057513587568" y1="373.2171544424716" x2="112.93654110761054" y2="437.2955714821575" style="stroke: black; stroke-width: 0.31; stroke-opacity: 0.68;"></line><line class="link" id="conv_1" x1="67.9403490824493" y1="402.72806719387523" x2="347.81339035428584" y2="485.05295195281667" style="stroke: black; stroke-width: 0.31; stroke-opacity: 0.68;"></line><line class="link" id="conv_1" x1="67.9403490824493" y1="399.72806719387523" x2="347.81339035428584" y2="485.05295195281667" style="stroke: black; stroke-width: 0.31; stroke-opacity: 0.68;"></line><line class="link" id="conv_2" x1="356.68707713564083" y1="497.2012408584412" x2="888.8724181093951" y2="628.5591461138935" style="stroke: black; stroke-width: 0.31; stroke-opacity: 0.68;"></line><line class="link" id="conv_2" x1="356.68707713564083" y1="494.2012408584412" x2="888.8724181093951" y2="628.5591461138935" style="stroke: black; stroke-width: 0.31; stroke-opacity: 0.68;"></line><polygon class="poly" id="fc_0" points="887,305.3295239067006 897,305.3295239067006 1046.3409521865988,454.67047609329944 1036.3409521865988,454.67047609329944" style="fill: rgb(192, 192, 192); stroke: black; stroke-width: 0.62; opacity: 0.68;"></polygon><polygon class="poly" id="fc_1" points="1048.3409521865988,375.33309524416876 1058.3409521865988,375.33309524416876 1067.6747616982611,384.6669047558312 1057.6747616982611,384.6669047558312" style="fill: rgb(192, 192, 192); stroke: black; stroke-width: 0.62; opacity: 0.68;"></polygon><line class="line" id="fc_0" x1="907" y1="648" x2="1036.3409521865988" y2="454.6704760932994" style="stroke: black; stroke-width: 0.31; stroke-opacity: 0.68; opacity: 1;"></line><line class="line" id="fc_0" x1="399" y1="112" x2="887" y2="305.3295239067006" style="stroke: black; stroke-width: 0.31; stroke-opacity: 0.68; opacity: 1;"></line><line class="line" id="fc_1" x1="1046.3409521865988" y1="454.6704760932994" x2="1057.6747616982611" y2="384.6669047558312" style="stroke: black; stroke-width: 0.31; stroke-opacity: 0.68; opacity: 1;"></line><line class="line" id="fc_1" x1="897" y1="305.3295239067006" x2="1048.3409521865988" y2="375.33309524416876" style="stroke: black; stroke-width: 0.31; stroke-opacity: 0.68; opacity: 1;"></line><text class="text" dy=".35em" font-family="sans-serif" x="-60" y="800" style="font-size: 16px; opacity: 1;">First Convolutional Block</text><text class="text" dy=".35em" font-family="sans-serif" x="179.5" y="800" style="font-size: 16px; opacity: 1;">Second Convolutional Block</text><text class="text" dy=".35em" font-family="sans-serif" x="500" y="800" style="font-size: 16px; opacity: 1;">Third Convolutional Block</text><text class="text" dy=".35em" font-family="sans-serif" x="919.3352380466497" y="800" style="font-size: 16px; opacity: 1;">Dense</text><text class="info" dy="-0.3em" font-family="sans-serif" x="-356" y="249" style="font-size: 16px;">3@224x224</text><text class="info" dy="-0.3em" font-family="sans-serif" x="-84" y="247" style="font-size: 16px;">32@112x112</text><text class="info" dy="-0.3em" font-family="sans-serif" x="83" y="211" style="font-size: 16px;">64@56x56</text><text class="info" dy="-0.3em" font-family="sans-serif" x="371" y="97" style="font-size: 16px;">128@28x28</text><text class="info" dy="-0.3em" font-family="sans-serif" x="887" y="290.3295239067006" style="font-size: 16px;">1x512</text><text class="info" dy="-0.3em" font-family="sans-serif" x="1048.3409521865988" y="360.33309524416876" style="font-size: 16px;">1x2</text></g></svg>